<svg width="28" height="28" viewBox="0 0 28 28" fill="none" xmlns="http://www.w3.org/2000/svg">
<path fill-rule="evenodd" clip-rule="evenodd" d="M9.33341 3.50004C9.33341 3.80946 9.45633 4.10621 9.67512 4.325C9.89392 4.54379 10.1907 4.66671 10.5001 4.66671H17.2609C18.5606 4.66671 19.0331 4.80204 19.5079 5.05637C19.9827 5.31071 20.3561 5.68404 20.6104 6.15887C20.8647 6.63371 21.0001 7.10504 21.0001 8.40587V19.8334C21.0001 20.1428 21.123 20.4395 21.3418 20.6583C21.5606 20.8771 21.8573 21 22.1667 21C22.4762 21 22.7729 20.8771 22.9917 20.6583C23.2105 20.4395 23.3334 20.1428 23.3334 19.8334V8.31604C23.3334 6.23587 23.1164 5.48104 22.7104 4.72037C22.3126 3.96882 21.698 3.35422 20.9464 2.95637C20.1857 2.55037 19.4309 2.33337 17.3507 2.33337H10.5001C10.1907 2.33337 9.89392 2.45629 9.67512 2.67508C9.45633 2.89388 9.33341 3.19062 9.33341 3.50004ZM14.9276 7.00004H8.40591C7.10508 7.00004 6.63375 7.13537 6.15891 7.38971C5.6892 7.63837 5.30507 8.02249 5.05641 8.49221C4.80208 8.96704 4.66675 9.43837 4.66675 10.7392V24.4067C4.66684 24.6263 4.72893 24.8415 4.84587 25.0274C4.96281 25.2133 5.12985 25.3624 5.32778 25.4576C5.52571 25.5528 5.7465 25.5902 5.96473 25.5655C6.18297 25.5407 6.38979 25.4549 6.56141 25.3179L11.6667 21.238L16.7721 25.3179C16.9436 25.4549 17.1503 25.5407 17.3685 25.5654C17.5866 25.5902 17.8073 25.5529 18.0052 25.4579C18.2031 25.3628 18.3701 25.2139 18.4872 25.0281C18.6042 24.8424 18.6664 24.6274 18.6667 24.4079V10.738C18.6667 9.43721 18.5314 8.96587 18.2771 8.49104C18.0284 8.02132 17.6443 7.6372 17.1746 7.38854C16.6997 7.13537 16.2284 7.00004 14.9276 7.00004Z" fill="#18333E"/>
</svg>
