<svg width="27" height="27" viewBox="0 0 27 27" fill="none" xmlns="http://www.w3.org/2000/svg">
<g clip-path="url(#clip0_26_1311)">
<path fill-rule="evenodd" clip-rule="evenodd" d="M17.4706 9.5292V26.9998H0V9.5292H17.4706ZM15.8824 11.1174H1.58825V25.4115H15.8824V11.1174ZM4.76471 15.8821H12.7059V14.2939H4.76471V15.8821V15.8821ZM4.76471 22.2351H12.7059V20.6469H4.76471V22.2351ZM22.2353 4.7645V22.2351H19.0588V20.6469H20.6471V6.35272H6.35295V7.94094H4.76471V4.76452H22.2353V4.7645ZM11.1192 17.4704V19.0586H4.76471V17.4704H11.1192ZM27.0005 -0.000366211V17.4702H23.824V15.882H25.4122V1.58787H11.1181V3.17609H9.52989V-0.000352148H27.0005V-0.000366211Z" fill="#18333E"/>
</g>
<defs>
<clipPath id="clip0_26_1311">
<rect width="27" height="27" fill="white"/>
</clipPath>
</defs>
</svg>
