<svg width="20" height="20" viewBox="0 0 20 20" fill="none" xmlns="http://www.w3.org/2000/svg">
<path d="M6 18.3334L8.16667 18.3334C10.8333 18.3334 12.5 16.6667 12.5 14L12.5 10.625L7.29167 10.625C6.95 10.625 6.66667 10.3417 6.66667 10C6.66667 9.65838 6.95 9.37504 7.29167 9.37504L12.5 9.37504L12.5 6.00004C12.5 3.33338 10.8333 1.66671 8.16667 1.66671L6.00833 1.66671C3.34167 1.66671 1.675 3.33338 1.675 6.00004L1.675 14C1.66667 16.6667 3.33333 18.3334 6 18.3334Z" fill="#FF7F5C"/>
<path d="M16.2 10.625L14.475 12.35C14.35 12.475 14.2917 12.6333 14.2917 12.7916C14.2917 12.95 14.35 13.1166 14.475 13.2333C14.7167 13.475 15.1167 13.475 15.3584 13.2333L18.15 10.4416C18.3917 10.2 18.3917 9.79997 18.15 9.5583L15.3584 6.76663C15.1167 6.52497 14.7167 6.52497 14.475 6.76663C14.2334 7.0083 14.2334 7.4083 14.475 7.64997L16.2 9.37497L12.5 9.37497L12.5 10.625L16.2 10.625Z" fill="#FF7F5C"/>
</svg>
